<?xml version="1.0" encoding="UTF-8"?>
<svg width="220px" height="220px" viewBox="0 0 220 220" version="1.1" xmlns="http://www.w3.org/2000/svg" xmlns:xlink="http://www.w3.org/1999/xlink">
    <title>编组 12</title>
    <defs>
        <rect id="path-1" x="0" y="0" width="220" height="220" rx="18.75"></rect>
        <polygon id="path-3" points="0 0 89.8986309 0 89.8986309 89.7304422 0 89.7304422"></polygon>
    </defs>
    <g id="页面-1" stroke="none" stroke-width="1" fill="none" fill-rule="evenodd">
        <g id="商城-导航-示意3（无产品占位图）" transform="translate(-730.000000, -250.000000)">
            <g id="编组-75" transform="translate(580.000000, 116.000000)">
                <g id="编组-12" transform="translate(150.000000, 134.000000)">
                    <mask id="mask-2" fill="white">
                        <use xlink:href="#path-1"></use>
                    </mask>
                    <use id="蒙版" fill-opacity="0" fill="#000000" xlink:href="#path-1"></use>
                    <g id="编组-6" mask="url(#mask-2)">
                        <g transform="translate(55.000000, 20.625000)">
                            <g id="编组备份">
                                <rect id="矩形备份-3" x="0" y="0" width="110" height="110"></rect>
                            </g>
                            <g id="编组" transform="translate(10.312500, 10.312500)">
                                <mask id="mask-4" fill="white">
                                    <use xlink:href="#path-3"></use>
                                </mask>
                                <g id="Clip-2"></g>
                                <path d="M89.8986309,62.8546479 L89.8986309,69.8292606 C89.8986309,71.816282 88.9339018,73.6794334 87.3002744,74.8263244 L67.8096856,88.4884627 C67.7994846,88.4979351 67.7907408,88.5074076 67.7805397,88.5074076 C67.6756145,88.5839155 67.5801617,88.6509511 67.4847089,88.7179867 C67.3506378,88.803967 67.2267677,88.8899474 67.0926966,88.9657268 C67.0737518,88.9854002 67.0737518,88.9948727 67.0642794,88.9854002 C66.9302082,89.0619082 66.7873933,89.1478886 66.6438498,89.2141955 C66.5294522,89.2717587 66.4048535,89.3198494 66.2809834,89.3577391 C66.2518375,89.3766839 66.2234203,89.3861563 66.195003,89.3861563 C66.0514595,89.4437194 65.8889711,89.4918102 65.7359552,89.5296998 C65.6405024,89.5683182 65.5355771,89.587263 65.4306519,89.6062078 C65.2871084,89.6440975 65.1340924,89.663771 64.9905489,89.6827158 C64.8287892,89.711133 64.6663008,89.7206055 64.49434,89.7308065 C64.3223793,89.7308065 64.1409461,89.7308065 63.9493118,89.7206055 C61.4179908,89.5777906 59.2203903,87.7241116 58.7423976,85.2401527 C58.3030233,82.9084811 59.2488076,80.8070621 60.8831636,79.5741907 L60.8066557,79.5741907 L60.6150214,79.5836631 L38.1056465,81.0839481 L37.5802918,81.1218377 L36.0421172,81.2180192 C32.1343813,81.0358573 29.1440124,77.6826221 29.3924812,73.793831 C29.5258236,71.5772857 30.682187,69.6762447 32.3639052,68.5009365 L32.3733776,68.5009365 L32.38285,68.491464 L31.9048573,68.491464 C31.8953849,68.491464 31.8859125,68.5009365 31.8669677,68.5009365 L10.1212153,68.4725192 L8.68869452,68.4725192 C5.98468409,68.2524677 3.39507131,66.8767814 1.7140818,64.4882753 C-0.407010723,61.4694892 -0.502463529,57.6477337 1.11221906,54.6092742 C1.1311639,54.5808569 1.15010873,54.5422386 1.16905356,54.5138214 C1.84742427,53.2911511 2.8121534,52.2018232 4.02607994,51.3420193 C4.02607994,51.3420193 62.306212,10.4598008 76.7137566,0.360748092 C78.0231359,-0.555890312 79.8192517,0.380421571 79.8192517,1.97543069 L79.8192517,18.0931107 C79.8192517,20.109278 78.8348491,21.9913742 77.1822769,23.1477376 L30.7011319,55.7364917 C28.140665,57.5333361 27.5198574,61.0680045 29.3159732,63.6284714 C30.3477379,65.0901381 31.9434756,65.9215247 33.5960479,66.02645 C34.8289193,66.1029579 36.0894792,65.7779812 37.1882795,65.0333036 C37.1977519,65.0231025 37.1977519,65.0231025 37.2072243,65.0136301 L65.7264828,45.0173601 C66.9877714,44.1378827 68.7168516,45.0363049 68.7168516,46.5744795 L68.6979068,57.0837607 C68.6884344,59.0328924 67.7331776,60.8581541 66.1374399,61.9853716 L59.4783315,66.6574586 C59.3347879,66.7529114 59.1919731,66.8483642 59.0579019,66.9532894 C57.8155582,67.9180186 56.9849001,69.3898863 56.8792463,71.0810768 C56.6788682,74.1953157 59.0579019,76.8898537 62.1721408,77.0807594 C63.4144846,77.1572673 64.5897928,76.8228182 65.5734668,76.2020106 C65.7170103,76.1065578 65.8605539,76.0103764 65.9938963,75.9054511 L85.150036,62.4823091 L85.1791819,62.4823091 L86.8798448,61.288056 C88.1498772,60.3991062 89.8986309,61.3070009 89.8986309,62.8546479" id="Fill-1" fill="#000000" opacity="0.1" mask="url(#mask-4)"></path>
                            </g>
                        </g>
                    </g>
                    <g id="编组-5" mask="url(#mask-2)" font-family="HarmonyHeiTi" font-size="12" font-weight="normal" opacity="0.200000003">
                        <g transform="translate(37.400000, 151.611842)" id="No-pictures.">
                            <text>
                                <tspan x="39.606" y="22.6" fill="#000000">No pictures.</tspan>
                            </text>
                        </g>
                    </g>
                </g>
            </g>
        </g>
    </g>
</svg>